<svg xmlns="http://www.w3.org/2000/svg" width="880" height="324" viewBox="0 0 880 324" role="img" aria-label="Bonsai Robotics on-vehicle data curation pipeline, v2">
<title>Bonsai Robotics on-vehicle data curation pipeline, v2</title>
<defs><pattern id="dt1a" width="4" height="4" patternUnits="userSpaceOnUse"><rect x="0" y="0" width="1" height="1" fill="#2563eb"/></pattern><pattern id="dt2a" width="4" height="4" patternUnits="userSpaceOnUse"><rect x="0" y="0" width="1" height="1" fill="#2563eb"/><rect x="2" y="2" width="1" height="1" fill="#2563eb"/></pattern><pattern id="dt3a" width="4" height="4" patternUnits="userSpaceOnUse"><rect x="0" y="0" width="1" height="1" fill="#2563eb"/><rect x="2" y="0" width="1" height="1" fill="#2563eb"/><rect x="2" y="2" width="1" height="1" fill="#2563eb"/></pattern><pattern id="dt4a" width="4" height="4" patternUnits="userSpaceOnUse"><rect x="0" y="0" width="1" height="1" fill="#2563eb"/><rect x="2" y="0" width="1" height="1" fill="#2563eb"/><rect x="0" y="2" width="1" height="1" fill="#2563eb"/><rect x="2" y="2" width="1" height="1" fill="#2563eb"/></pattern><pattern id="dt6a" width="4" height="4" patternUnits="userSpaceOnUse"><rect x="0" y="0" width="1" height="1" fill="#2563eb"/><rect x="2" y="0" width="1" height="1" fill="#2563eb"/><rect x="1" y="1" width="1" height="1" fill="#2563eb"/><rect x="0" y="2" width="1" height="1" fill="#2563eb"/><rect x="2" y="2" width="1" height="1" fill="#2563eb"/><rect x="3" y="3" width="1" height="1" fill="#2563eb"/></pattern><pattern id="dt8a" width="4" height="4" patternUnits="userSpaceOnUse"><rect x="0" y="0" width="1" height="1" fill="#2563eb"/><rect x="2" y="0" width="1" height="1" fill="#2563eb"/><rect x="1" y="1" width="1" height="1" fill="#2563eb"/><rect x="3" y="1" width="1" height="1" fill="#2563eb"/><rect x="0" y="2" width="1" height="1" fill="#2563eb"/><rect x="2" y="2" width="1" height="1" fill="#2563eb"/><rect x="1" y="3" width="1" height="1" fill="#2563eb"/><rect x="3" y="3" width="1" height="1" fill="#2563eb"/></pattern><pattern id="dt10a" width="4" height="4" patternUnits="userSpaceOnUse"><rect x="0" y="0" width="1" height="1" fill="#2563eb"/><rect x="1" y="0" width="1" height="1" fill="#2563eb"/><rect x="2" y="0" width="1" height="1" fill="#2563eb"/><rect x="1" y="1" width="1" height="1" fill="#2563eb"/><rect x="3" y="1" width="1" height="1" fill="#2563eb"/><rect x="0" y="2" width="1" height="1" fill="#2563eb"/><rect x="2" y="2" width="1" height="1" fill="#2563eb"/><rect x="3" y="2" width="1" height="1" fill="#2563eb"/><rect x="1" y="3" width="1" height="1" fill="#2563eb"/><rect x="3" y="3" width="1" height="1" fill="#2563eb"/></pattern><pattern id="dt12a" width="4" height="4" patternUnits="userSpaceOnUse"><rect x="0" y="0" width="1" height="1" fill="#2563eb"/><rect x="1" y="0" width="1" height="1" fill="#2563eb"/><rect x="2" y="0" width="1" height="1" fill="#2563eb"/><rect x="3" y="0" width="1" height="1" fill="#2563eb"/><rect x="1" y="1" width="1" height="1" fill="#2563eb"/><rect x="3" y="1" width="1" height="1" fill="#2563eb"/><rect x="0" y="2" width="1" height="1" fill="#2563eb"/><rect x="1" y="2" width="1" height="1" fill="#2563eb"/><rect x="2" y="2" width="1" height="1" fill="#2563eb"/><rect x="3" y="2" width="1" height="1" fill="#2563eb"/><rect x="1" y="3" width="1" height="1" fill="#2563eb"/><rect x="3" y="3" width="1" height="1" fill="#2563eb"/></pattern><pattern id="dt14a" width="4" height="4" patternUnits="userSpaceOnUse"><rect x="0" y="0" width="1" height="1" fill="#2563eb"/><rect x="1" y="0" width="1" height="1" fill="#2563eb"/><rect x="2" y="0" width="1" height="1" fill="#2563eb"/><rect x="3" y="0" width="1" height="1" fill="#2563eb"/><rect x="0" y="1" width="1" height="1" fill="#2563eb"/><rect x="1" y="1" width="1" height="1" fill="#2563eb"/><rect x="3" y="1" width="1" height="1" fill="#2563eb"/><rect x="0" y="2" width="1" height="1" fill="#2563eb"/><rect x="1" y="2" width="1" height="1" fill="#2563eb"/><rect x="2" y="2" width="1" height="1" fill="#2563eb"/><rect x="3" y="2" width="1" height="1" fill="#2563eb"/><rect x="1" y="3" width="1" height="1" fill="#2563eb"/><rect x="2" y="3" width="1" height="1" fill="#2563eb"/><rect x="3" y="3" width="1" height="1" fill="#2563eb"/></pattern><pattern id="dt1g" width="4" height="4" patternUnits="userSpaceOnUse"><rect x="0" y="0" width="1" height="1" fill="#585858"/></pattern><pattern id="dt2g" width="4" height="4" patternUnits="userSpaceOnUse"><rect x="0" y="0" width="1" height="1" fill="#585858"/><rect x="2" y="2" width="1" height="1" fill="#585858"/></pattern><pattern id="dt3g" width="4" height="4" patternUnits="userSpaceOnUse"><rect x="0" y="0" width="1" height="1" fill="#585858"/><rect x="2" y="0" width="1" height="1" fill="#585858"/><rect x="2" y="2" width="1" height="1" fill="#585858"/></pattern><pattern id="dt4g" width="4" height="4" patternUnits="userSpaceOnUse"><rect x="0" y="0" width="1" height="1" fill="#585858"/><rect x="2" y="0" width="1" height="1" fill="#585858"/><rect x="0" y="2" width="1" height="1" fill="#585858"/><rect x="2" y="2" width="1" height="1" fill="#585858"/></pattern><pattern id="dt6g" width="4" height="4" patternUnits="userSpaceOnUse"><rect x="0" y="0" width="1" height="1" fill="#585858"/><rect x="2" y="0" width="1" height="1" fill="#585858"/><rect x="1" y="1" width="1" height="1" fill="#585858"/><rect x="0" y="2" width="1" height="1" fill="#585858"/><rect x="2" y="2" width="1" height="1" fill="#585858"/><rect x="3" y="3" width="1" height="1" fill="#585858"/></pattern><pattern id="dt8g" width="4" height="4" patternUnits="userSpaceOnUse"><rect x="0" y="0" width="1" height="1" fill="#585858"/><rect x="2" y="0" width="1" height="1" fill="#585858"/><rect x="1" y="1" width="1" height="1" fill="#585858"/><rect x="3" y="1" width="1" height="1" fill="#585858"/><rect x="0" y="2" width="1" height="1" fill="#585858"/><rect x="2" y="2" width="1" height="1" fill="#585858"/><rect x="1" y="3" width="1" height="1" fill="#585858"/><rect x="3" y="3" width="1" height="1" fill="#585858"/></pattern><pattern id="dt10g" width="4" height="4" patternUnits="userSpaceOnUse"><rect x="0" y="0" width="1" height="1" fill="#585858"/><rect x="1" y="0" width="1" height="1" fill="#585858"/><rect x="2" y="0" width="1" height="1" fill="#585858"/><rect x="1" y="1" width="1" height="1" fill="#585858"/><rect x="3" y="1" width="1" height="1" fill="#585858"/><rect x="0" y="2" width="1" height="1" fill="#585858"/><rect x="2" y="2" width="1" height="1" fill="#585858"/><rect x="3" y="2" width="1" height="1" fill="#585858"/><rect x="1" y="3" width="1" height="1" fill="#585858"/><rect x="3" y="3" width="1" height="1" fill="#585858"/></pattern><pattern id="dt12g" width="4" height="4" patternUnits="userSpaceOnUse"><rect x="0" y="0" width="1" height="1" fill="#585858"/><rect x="1" y="0" width="1" height="1" fill="#585858"/><rect x="2" y="0" width="1" height="1" fill="#585858"/><rect x="3" y="0" width="1" height="1" fill="#585858"/><rect x="1" y="1" width="1" height="1" fill="#585858"/><rect x="3" y="1" width="1" height="1" fill="#585858"/><rect x="0" y="2" width="1" height="1" fill="#585858"/><rect x="1" y="2" width="1" height="1" fill="#585858"/><rect x="2" y="2" width="1" height="1" fill="#585858"/><rect x="3" y="2" width="1" height="1" fill="#585858"/><rect x="1" y="3" width="1" height="1" fill="#585858"/><rect x="3" y="3" width="1" height="1" fill="#585858"/></pattern><pattern id="dt14g" width="4" height="4" patternUnits="userSpaceOnUse"><rect x="0" y="0" width="1" height="1" fill="#585858"/><rect x="1" y="0" width="1" height="1" fill="#585858"/><rect x="2" y="0" width="1" height="1" fill="#585858"/><rect x="3" y="0" width="1" height="1" fill="#585858"/><rect x="0" y="1" width="1" height="1" fill="#585858"/><rect x="1" y="1" width="1" height="1" fill="#585858"/><rect x="3" y="1" width="1" height="1" fill="#585858"/><rect x="0" y="2" width="1" height="1" fill="#585858"/><rect x="1" y="2" width="1" height="1" fill="#585858"/><rect x="2" y="2" width="1" height="1" fill="#585858"/><rect x="3" y="2" width="1" height="1" fill="#585858"/><rect x="1" y="3" width="1" height="1" fill="#585858"/><rect x="2" y="3" width="1" height="1" fill="#585858"/><rect x="3" y="3" width="1" height="1" fill="#585858"/></pattern><pattern id="dt1d" width="4" height="4" patternUnits="userSpaceOnUse"><rect x="0" y="0" width="1" height="1" fill="#333333"/></pattern><pattern id="dt2d" width="4" height="4" patternUnits="userSpaceOnUse"><rect x="0" y="0" width="1" height="1" fill="#333333"/><rect x="2" y="2" width="1" height="1" fill="#333333"/></pattern><pattern id="dt3d" width="4" height="4" patternUnits="userSpaceOnUse"><rect x="0" y="0" width="1" height="1" fill="#333333"/><rect x="2" y="0" width="1" height="1" fill="#333333"/><rect x="2" y="2" width="1" height="1" fill="#333333"/></pattern><pattern id="dt4d" width="4" height="4" patternUnits="userSpaceOnUse"><rect x="0" y="0" width="1" height="1" fill="#333333"/><rect x="2" y="0" width="1" height="1" fill="#333333"/><rect x="0" y="2" width="1" height="1" fill="#333333"/><rect x="2" y="2" width="1" height="1" fill="#333333"/></pattern><pattern id="dt6d" width="4" height="4" patternUnits="userSpaceOnUse"><rect x="0" y="0" width="1" height="1" fill="#333333"/><rect x="2" y="0" width="1" height="1" fill="#333333"/><rect x="1" y="1" width="1" height="1" fill="#333333"/><rect x="0" y="2" width="1" height="1" fill="#333333"/><rect x="2" y="2" width="1" height="1" fill="#333333"/><rect x="3" y="3" width="1" height="1" fill="#333333"/></pattern><pattern id="dt8d" width="4" height="4" patternUnits="userSpaceOnUse"><rect x="0" y="0" width="1" height="1" fill="#333333"/><rect x="2" y="0" width="1" height="1" fill="#333333"/><rect x="1" y="1" width="1" height="1" fill="#333333"/><rect x="3" y="1" width="1" height="1" fill="#333333"/><rect x="0" y="2" width="1" height="1" fill="#333333"/><rect x="2" y="2" width="1" height="1" fill="#333333"/><rect x="1" y="3" width="1" height="1" fill="#333333"/><rect x="3" y="3" width="1" height="1" fill="#333333"/></pattern><pattern id="dt10d" width="4" height="4" patternUnits="userSpaceOnUse"><rect x="0" y="0" width="1" height="1" fill="#333333"/><rect x="1" y="0" width="1" height="1" fill="#333333"/><rect x="2" y="0" width="1" height="1" fill="#333333"/><rect x="1" y="1" width="1" height="1" fill="#333333"/><rect x="3" y="1" width="1" height="1" fill="#333333"/><rect x="0" y="2" width="1" height="1" fill="#333333"/><rect x="2" y="2" width="1" height="1" fill="#333333"/><rect x="3" y="2" width="1" height="1" fill="#333333"/><rect x="1" y="3" width="1" height="1" fill="#333333"/><rect x="3" y="3" width="1" height="1" fill="#333333"/></pattern><pattern id="dt12d" width="4" height="4" patternUnits="userSpaceOnUse"><rect x="0" y="0" width="1" height="1" fill="#333333"/><rect x="1" y="0" width="1" height="1" fill="#333333"/><rect x="2" y="0" width="1" height="1" fill="#333333"/><rect x="3" y="0" width="1" height="1" fill="#333333"/><rect x="1" y="1" width="1" height="1" fill="#333333"/><rect x="3" y="1" width="1" height="1" fill="#333333"/><rect x="0" y="2" width="1" height="1" fill="#333333"/><rect x="1" y="2" width="1" height="1" fill="#333333"/><rect x="2" y="2" width="1" height="1" fill="#333333"/><rect x="3" y="2" width="1" height="1" fill="#333333"/><rect x="1" y="3" width="1" height="1" fill="#333333"/><rect x="3" y="3" width="1" height="1" fill="#333333"/></pattern><pattern id="dt14d" width="4" height="4" patternUnits="userSpaceOnUse"><rect x="0" y="0" width="1" height="1" fill="#333333"/><rect x="1" y="0" width="1" height="1" fill="#333333"/><rect x="2" y="0" width="1" height="1" fill="#333333"/><rect x="3" y="0" width="1" height="1" fill="#333333"/><rect x="0" y="1" width="1" height="1" fill="#333333"/><rect x="1" y="1" width="1" height="1" fill="#333333"/><rect x="3" y="1" width="1" height="1" fill="#333333"/><rect x="0" y="2" width="1" height="1" fill="#333333"/><rect x="1" y="2" width="1" height="1" fill="#333333"/><rect x="2" y="2" width="1" height="1" fill="#333333"/><rect x="3" y="2" width="1" height="1" fill="#333333"/><rect x="1" y="3" width="1" height="1" fill="#333333"/><rect x="2" y="3" width="1" height="1" fill="#333333"/><rect x="3" y="3" width="1" height="1" fill="#333333"/></pattern><pattern id="dt1m" width="4" height="4" patternUnits="userSpaceOnUse"><rect x="0" y="0" width="1" height="1" fill="#8b8b8b"/></pattern><pattern id="dt2m" width="4" height="4" patternUnits="userSpaceOnUse"><rect x="0" y="0" width="1" height="1" fill="#8b8b8b"/><rect x="2" y="2" width="1" height="1" fill="#8b8b8b"/></pattern><pattern id="dt3m" width="4" height="4" patternUnits="userSpaceOnUse"><rect x="0" y="0" width="1" height="1" fill="#8b8b8b"/><rect x="2" y="0" width="1" height="1" fill="#8b8b8b"/><rect x="2" y="2" width="1" height="1" fill="#8b8b8b"/></pattern><pattern id="dt4m" width="4" height="4" patternUnits="userSpaceOnUse"><rect x="0" y="0" width="1" height="1" fill="#8b8b8b"/><rect x="2" y="0" width="1" height="1" fill="#8b8b8b"/><rect x="0" y="2" width="1" height="1" fill="#8b8b8b"/><rect x="2" y="2" width="1" height="1" fill="#8b8b8b"/></pattern><pattern id="dt6m" width="4" height="4" patternUnits="userSpaceOnUse"><rect x="0" y="0" width="1" height="1" fill="#8b8b8b"/><rect x="2" y="0" width="1" height="1" fill="#8b8b8b"/><rect x="1" y="1" width="1" height="1" fill="#8b8b8b"/><rect x="0" y="2" width="1" height="1" fill="#8b8b8b"/><rect x="2" y="2" width="1" height="1" fill="#8b8b8b"/><rect x="3" y="3" width="1" height="1" fill="#8b8b8b"/></pattern><pattern id="dt8m" width="4" height="4" patternUnits="userSpaceOnUse"><rect x="0" y="0" width="1" height="1" fill="#8b8b8b"/><rect x="2" y="0" width="1" height="1" fill="#8b8b8b"/><rect x="1" y="1" width="1" height="1" fill="#8b8b8b"/><rect x="3" y="1" width="1" height="1" fill="#8b8b8b"/><rect x="0" y="2" width="1" height="1" fill="#8b8b8b"/><rect x="2" y="2" width="1" height="1" fill="#8b8b8b"/><rect x="1" y="3" width="1" height="1" fill="#8b8b8b"/><rect x="3" y="3" width="1" height="1" fill="#8b8b8b"/></pattern><pattern id="dt10m" width="4" height="4" patternUnits="userSpaceOnUse"><rect x="0" y="0" width="1" height="1" fill="#8b8b8b"/><rect x="1" y="0" width="1" height="1" fill="#8b8b8b"/><rect x="2" y="0" width="1" height="1" fill="#8b8b8b"/><rect x="1" y="1" width="1" height="1" fill="#8b8b8b"/><rect x="3" y="1" width="1" height="1" fill="#8b8b8b"/><rect x="0" y="2" width="1" height="1" fill="#8b8b8b"/><rect x="2" y="2" width="1" height="1" fill="#8b8b8b"/><rect x="3" y="2" width="1" height="1" fill="#8b8b8b"/><rect x="1" y="3" width="1" height="1" fill="#8b8b8b"/><rect x="3" y="3" width="1" height="1" fill="#8b8b8b"/></pattern><pattern id="dt12m" width="4" height="4" patternUnits="userSpaceOnUse"><rect x="0" y="0" width="1" height="1" fill="#8b8b8b"/><rect x="1" y="0" width="1" height="1" fill="#8b8b8b"/><rect x="2" y="0" width="1" height="1" fill="#8b8b8b"/><rect x="3" y="0" width="1" height="1" fill="#8b8b8b"/><rect x="1" y="1" width="1" height="1" fill="#8b8b8b"/><rect x="3" y="1" width="1" height="1" fill="#8b8b8b"/><rect x="0" y="2" width="1" height="1" fill="#8b8b8b"/><rect x="1" y="2" width="1" height="1" fill="#8b8b8b"/><rect x="2" y="2" width="1" height="1" fill="#8b8b8b"/><rect x="3" y="2" width="1" height="1" fill="#8b8b8b"/><rect x="1" y="3" width="1" height="1" fill="#8b8b8b"/><rect x="3" y="3" width="1" height="1" fill="#8b8b8b"/></pattern><pattern id="dt14m" width="4" height="4" patternUnits="userSpaceOnUse"><rect x="0" y="0" width="1" height="1" fill="#8b8b8b"/><rect x="1" y="0" width="1" height="1" fill="#8b8b8b"/><rect x="2" y="0" width="1" height="1" fill="#8b8b8b"/><rect x="3" y="0" width="1" height="1" fill="#8b8b8b"/><rect x="0" y="1" width="1" height="1" fill="#8b8b8b"/><rect x="1" y="1" width="1" height="1" fill="#8b8b8b"/><rect x="3" y="1" width="1" height="1" fill="#8b8b8b"/><rect x="0" y="2" width="1" height="1" fill="#8b8b8b"/><rect x="1" y="2" width="1" height="1" fill="#8b8b8b"/><rect x="2" y="2" width="1" height="1" fill="#8b8b8b"/><rect x="3" y="2" width="1" height="1" fill="#8b8b8b"/><rect x="1" y="3" width="1" height="1" fill="#8b8b8b"/><rect x="2" y="3" width="1" height="1" fill="#8b8b8b"/><rect x="3" y="3" width="1" height="1" fill="#8b8b8b"/></pattern><clipPath id="card"><rect x="0" y="0" width="880" height="324" rx="3"/></clipPath><pattern id="scan" width="1" height="3" patternUnits="userSpaceOnUse"><rect width="1" height="1" fill="#000000" opacity="0.5"/></pattern><filter id="grain" x="0" y="0" width="100%" height="100%"><feTurbulence type="fractalNoise" baseFrequency="0.9" numOctaves="2" stitchTiles="stitch"/><feColorMatrix type="saturate" values="0"/></filter><linearGradient id="rainfade" x1="0" y1="0" x2="1" y2="0"><stop offset="0" stop-color="#fff" stop-opacity="0.85"/><stop offset="0.38" stop-color="#fff" stop-opacity="0"/><stop offset="0.62" stop-color="#fff" stop-opacity="0"/><stop offset="1" stop-color="#fff" stop-opacity="0.85"/></linearGradient><mask id="rainmask"><rect width="880" height="324" fill="url(#rainfade)"/></mask></defs>
<rect x="0.0" y="0.0" width="880.0" height="324.0" rx="3" fill="#121212"/>
<rect x="0.5" y="0.5" width="879.0" height="323.0" rx="3" fill="none" stroke="#333333" stroke-width="1"/>
<path d="M7 16 V7 H16" stroke="#585858" stroke-width="1" fill="none"/><path d="M873 16 V7 H864" stroke="#585858" stroke-width="1" fill="none"/><path d="M7 308 V317 H16" stroke="#585858" stroke-width="1" fill="none"/><path d="M873 308 V317 H864" stroke="#585858" stroke-width="1" fill="none"/>
<g clip-path="url(#card)"><rect x="0.0" y="0.0" width="4.0" height="120.0" rx="0" fill="#2563eb"/><rect x="0.0" y="120.0" width="4.0" height="40.8" rx="0" fill="url(#dt12a)"/><rect x="0.0" y="160.8" width="4.0" height="40.8" rx="0" fill="url(#dt8a)"/><rect x="0.0" y="201.6" width="4.0" height="40.8" rx="0" fill="url(#dt5a)"/><rect x="0.0" y="242.4" width="4.0" height="40.8" rx="0" fill="url(#dt3a)"/><rect x="0.0" y="283.2" width="4.0" height="40.8" rx="0" fill="url(#dt2a)"/></g>
<text x="32.0" y="40.0" font-family="ui-monospace,SFMono-Regular,'SF Mono',Menlo,Consolas,'Liberation Mono',monospace" font-size="10.5" font-weight="600" fill="#3b82f6" text-anchor="start" letter-spacing="1.6">BONSAI ROBOTICS · MACHINE LEARNING ENGINEERING INTERN</text>
<text x="32.0" y="66.0" font-family="ui-monospace,SFMono-Regular,'SF Mono',Menlo,Consolas,'Liberation Mono',monospace" font-size="16" font-weight="600" fill="#e8e8e8" text-anchor="start" letter-spacing="0.8">ON-VEHICLE DATA CURATION PIPELINE</text>
<text x="32.0" y="88.0" font-family="ui-monospace,SFMono-Regular,'SF Mono',Menlo,Consolas,'Liberation Mono',monospace" font-size="10.5" fill="#585858" text-anchor="start">C++ / ROS 2 · private repo · merged to main, running on every vehicle</text>
<text x="32.0" y="114.0" font-family="ui-sans-serif,-apple-system,BlinkMacSystemFont,'Segoe UI',Roboto,'Helvetica Neue',Arial,sans-serif" font-size="12.5" fill="#8b8b8b" text-anchor="start">A fleet records far more than anyone can upload, so the vehicle itself decides what is worth sending home.</text>
<g transform="translate(758.7,51)"><rect x="0.0" y="0.0" width="89.3" height="21.0" rx="2" fill="#2563eb" stroke="#2563eb" stroke-width="1"/><text x="44.6" y="14.3" font-family="ui-monospace,SFMono-Regular,'SF Mono',Menlo,Consolas,'Liberation Mono',monospace" font-size="10.5" font-weight="600" fill="#ffffff" text-anchor="middle">C++ / ROS 2</text></g>
<g transform="translate(719.1,51)"><rect x="0.0" y="0.0" width="32.6" height="21.0" rx="2" fill="#0f0f0f" stroke="#333333" stroke-width="1"/><text x="16.3" y="14.3" font-family="ui-monospace,SFMono-Regular,'SF Mono',Menlo,Consolas,'Liberation Mono',monospace" font-size="10.5" font-weight="600" fill="#8b8b8b" text-anchor="middle">v2</text></g>
<g transform="translate(648.0,51)"><rect x="0.0" y="0.0" width="64.1" height="21.0" rx="2" fill="#0f0f0f" stroke="#333333" stroke-width="1"/><text x="32.0" y="14.3" font-family="ui-monospace,SFMono-Regular,'SF Mono',Menlo,Consolas,'Liberation Mono',monospace" font-size="10.5" font-weight="600" fill="#8b8b8b" text-anchor="middle">private</text></g>
<rect x="74.2" y="197.0" width="115.8" height="46" rx="2" fill="#0f0f0f" stroke="#333333" stroke-width="1"/><rect x="74.2" y="197.0" width="115.8" height="2.0" rx="0" fill="#2563eb"/><text x="132.2" y="218.0" font-family="ui-monospace,SFMono-Regular,'SF Mono',Menlo,Consolas,'Liberation Mono',monospace" font-size="11" font-weight="600" fill="#e8e8e8" text-anchor="middle">sensor stream</text><text x="132.2" y="233.0" font-family="ui-monospace,SFMono-Regular,'SF Mono',Menlo,Consolas,'Liberation Mono',monospace" font-size="9.5" fill="#8b8b8b" text-anchor="middle">MCAP recordings</text>
<path d="M194.1 220 H202.1" stroke="#585858" stroke-width="1" fill="none"/><path d="M208.1 220 l-5.5,-3.5 v7 z" fill="#585858"/>
<rect x="212.1" y="197.0" width="135.6" height="46" rx="2" fill="#0f0f0f" stroke="#333333" stroke-width="1"/><rect x="212.1" y="197.0" width="135.6" height="2.0" rx="0" fill="#2563eb"/><text x="279.9" y="218.0" font-family="ui-monospace,SFMono-Regular,'SF Mono',Menlo,Consolas,'Liberation Mono',monospace" font-size="11" font-weight="600" fill="#e8e8e8" text-anchor="middle">frame embeddings</text><text x="279.9" y="233.0" font-family="ui-monospace,SFMono-Regular,'SF Mono',Menlo,Consolas,'Liberation Mono',monospace" font-size="9.5" fill="#8b8b8b" text-anchor="middle">on-vehicle encoder</text>
<path d="M351.6 220 H359.6" stroke="#585858" stroke-width="1" fill="none"/><path d="M365.6 220 l-5.5,-3.5 v7 z" fill="#585858"/>
<rect x="369.6" y="197.0" width="138.3" height="46" rx="2" fill="#0f0f0f" stroke="#333333" stroke-width="1"/><rect x="369.6" y="197.0" width="138.3" height="2.0" rx="0" fill="#2563eb"/><text x="438.8" y="218.0" font-family="ui-monospace,SFMono-Regular,'SF Mono',Menlo,Consolas,'Liberation Mono',monospace" font-size="11" font-weight="600" fill="#e8e8e8" text-anchor="middle">window score</text><text x="438.8" y="233.0" font-family="ui-monospace,SFMono-Regular,'SF Mono',Menlo,Consolas,'Liberation Mono',monospace" font-size="9.5" fill="#8b8b8b" text-anchor="middle">distance to vectors</text>
<path d="M511.9 220 H520.0" stroke="#585858" stroke-width="1" fill="none"/><path d="M526.0 220 l-5.5,-3.5 v7 z" fill="#585858"/>
<rect x="530.0" y="197.0" width="132.6" height="46" rx="2" fill="#0f0f0f" stroke="#333333" stroke-width="1"/><rect x="530.0" y="197.0" width="132.6" height="2.0" rx="0" fill="#2563eb"/><text x="596.2" y="218.0" font-family="ui-monospace,SFMono-Regular,'SF Mono',Menlo,Consolas,'Liberation Mono',monospace" font-size="11" font-weight="600" fill="#e8e8e8" text-anchor="middle">upload gate</text><text x="596.2" y="233.0" font-family="ui-monospace,SFMono-Regular,'SF Mono',Menlo,Consolas,'Liberation Mono',monospace" font-size="9.5" fill="#8b8b8b" text-anchor="middle">race-free finalize</text>
<path d="M666.6 220 H674.6" stroke="#585858" stroke-width="1" fill="none"/><path d="M680.6 220 l-5.5,-3.5 v7 z" fill="#585858"/>
<rect x="684.6" y="197.0" width="121.2" height="46" rx="2" fill="#0f0f0f" stroke="#333333" stroke-width="1"/><rect x="684.6" y="197.0" width="121.2" height="2.0" rx="0" fill="#2563eb"/><text x="745.2" y="218.0" font-family="ui-monospace,SFMono-Regular,'SF Mono',Menlo,Consolas,'Liberation Mono',monospace" font-size="11" font-weight="600" fill="#e8e8e8" text-anchor="middle">cloud</text><text x="745.2" y="233.0" font-family="ui-monospace,SFMono-Regular,'SF Mono',Menlo,Consolas,'Liberation Mono',monospace" font-size="9.5" fill="#8b8b8b" text-anchor="middle">top windows only</text>
<rect x="369.6" y="130.0" width="436.1" height="42" rx="2" fill="#0f0f0f" stroke="#333333" stroke-width="1" stroke-dasharray="4 3"/><rect x="369.6" y="130.0" width="436.1" height="2.0" rx="0" fill="url(#dt8a)"/><text x="587.7" y="149.0" font-family="ui-monospace,SFMono-Regular,'SF Mono',Menlo,Consolas,'Liberation Mono',monospace" font-size="11" font-weight="600" fill="#e8e8e8" text-anchor="middle">remote fleet server</text><text x="587.7" y="164.0" font-family="ui-monospace,SFMono-Regular,'SF Mono',Menlo,Consolas,'Liberation Mono',monospace" font-size="9.5" fill="#8b8b8b" text-anchor="middle">periodic pass over the full dataset</text>
<text x="357.6" y="155.0" font-family="ui-monospace,SFMono-Regular,'SF Mono',Menlo,Consolas,'Liberation Mono',monospace" font-size="9.5" fill="#585858" text-anchor="end">off-vehicle</text>
<path d="M438.8 172 V190.0" stroke="#585858" stroke-width="1" fill="none" stroke-dasharray="3 2"/><path d="M438.8 197 l-3.5,-7 h7 z" fill="#585858"/><text x="447.8" y="188.0" font-family="ui-monospace,SFMono-Regular,'SF Mono',Menlo,Consolas,'Liberation Mono',monospace" font-size="9.5" fill="#585858" text-anchor="start">refreshed characteristic vectors</text>
<path d="M745.2 197 V179.0" stroke="#585858" stroke-width="1" fill="none" stroke-dasharray="3 2"/><path d="M745.2 172 l-3.5,7 h7 z" fill="#585858"/><text x="754.2" y="188.0" font-family="ui-monospace,SFMono-Regular,'SF Mono',Menlo,Consolas,'Liberation Mono',monospace" font-size="9.5" fill="#585858" text-anchor="start">uploaded windows</text>
<rect x="28.0" y="260.0" width="824.0" height="2.0" rx="0" fill="url(#dt8d)"/><rect x="28.0" y="262.0" width="824.0" height="2.0" rx="0" fill="url(#dt6d)"/><rect x="28.0" y="264.0" width="824.0" height="2.0" rx="0" fill="url(#dt4d)"/><rect x="28.0" y="266.0" width="824.0" height="2.0" rx="0" fill="url(#dt2d)"/>
<text x="131.0" y="294.0" font-family="ui-monospace,SFMono-Regular,'SF Mono',Menlo,Consolas,'Liberation Mono',monospace" font-size="19" font-weight="600" fill="#3b82f6" text-anchor="middle">-70%</text>
<text x="131.0" y="311.0" font-family="ui-monospace,SFMono-Regular,'SF Mono',Menlo,Consolas,'Liberation Mono',monospace" font-size="10" fill="#8b8b8b" text-anchor="middle">upload volume</text>
<text x="337.0" y="294.0" font-family="ui-monospace,SFMono-Regular,'SF Mono',Menlo,Consolas,'Liberation Mono',monospace" font-size="19" font-weight="600" fill="#3b82f6" text-anchor="middle">8×</text>
<text x="337.0" y="311.0" font-family="ui-monospace,SFMono-Regular,'SF Mono',Menlo,Consolas,'Liberation Mono',monospace" font-size="10" fill="#8b8b8b" text-anchor="middle">usable score spread</text>
<rect x="234.0" y="278.0" width="1.0" height="40.0" rx="0" fill="url(#dt8d)"/>
<text x="543.0" y="294.0" font-family="ui-monospace,SFMono-Regular,'SF Mono',Menlo,Consolas,'Liberation Mono',monospace" font-size="19" font-weight="600" fill="#3b82f6" text-anchor="middle">&lt;3%</text>
<text x="543.0" y="311.0" font-family="ui-monospace,SFMono-Regular,'SF Mono',Menlo,Consolas,'Liberation Mono',monospace" font-size="10" fill="#8b8b8b" text-anchor="middle">latency for a distilled VLM</text>
<rect x="440.0" y="278.0" width="1.0" height="40.0" rx="0" fill="url(#dt8d)"/>
<text x="749.0" y="294.0" font-family="ui-monospace,SFMono-Regular,'SF Mono',Menlo,Consolas,'Liberation Mono',monospace" font-size="19" font-weight="600" fill="#3b82f6" text-anchor="middle">287k</text>
<text x="749.0" y="311.0" font-family="ui-monospace,SFMono-Regular,'SF Mono',Menlo,Consolas,'Liberation Mono',monospace" font-size="10" fill="#8b8b8b" text-anchor="middle">frames embedded on Ray</text>
<rect x="646.0" y="278.0" width="1.0" height="40.0" rx="0" fill="url(#dt8d)"/>

</svg>
