<svg xmlns="http://www.w3.org/2000/svg" width="880" height="422" viewBox="0 0 880 422" role="img" aria-label="Improvement factor per workload, log scale, largest first">
<title>Improvement factor per workload, log scale, largest first</title>
<defs><pattern id="dt1a" width="4" height="4" patternUnits="userSpaceOnUse"><rect x="0" y="0" width="1" height="1" fill="#2563eb"/></pattern><pattern id="dt2a" width="4" height="4" patternUnits="userSpaceOnUse"><rect x="0" y="0" width="1" height="1" fill="#2563eb"/><rect x="2" y="2" width="1" height="1" fill="#2563eb"/></pattern><pattern id="dt3a" width="4" height="4" patternUnits="userSpaceOnUse"><rect x="0" y="0" width="1" height="1" fill="#2563eb"/><rect x="2" y="0" width="1" height="1" fill="#2563eb"/><rect x="2" y="2" width="1" height="1" fill="#2563eb"/></pattern><pattern id="dt4a" width="4" height="4" patternUnits="userSpaceOnUse"><rect x="0" y="0" width="1" height="1" fill="#2563eb"/><rect x="2" y="0" width="1" height="1" fill="#2563eb"/><rect x="0" y="2" width="1" height="1" fill="#2563eb"/><rect x="2" y="2" width="1" height="1" fill="#2563eb"/></pattern><pattern id="dt6a" width="4" height="4" patternUnits="userSpaceOnUse"><rect x="0" y="0" width="1" height="1" fill="#2563eb"/><rect x="2" y="0" width="1" height="1" fill="#2563eb"/><rect x="1" y="1" width="1" height="1" fill="#2563eb"/><rect x="0" y="2" width="1" height="1" fill="#2563eb"/><rect x="2" y="2" width="1" height="1" fill="#2563eb"/><rect x="3" y="3" width="1" height="1" fill="#2563eb"/></pattern><pattern id="dt8a" width="4" height="4" patternUnits="userSpaceOnUse"><rect x="0" y="0" width="1" height="1" fill="#2563eb"/><rect x="2" y="0" width="1" height="1" fill="#2563eb"/><rect x="1" y="1" width="1" height="1" fill="#2563eb"/><rect x="3" y="1" width="1" height="1" fill="#2563eb"/><rect x="0" y="2" width="1" height="1" fill="#2563eb"/><rect x="2" y="2" width="1" height="1" fill="#2563eb"/><rect x="1" y="3" width="1" height="1" fill="#2563eb"/><rect x="3" y="3" width="1" height="1" fill="#2563eb"/></pattern><pattern id="dt10a" width="4" height="4" patternUnits="userSpaceOnUse"><rect x="0" y="0" width="1" height="1" fill="#2563eb"/><rect x="1" y="0" width="1" height="1" fill="#2563eb"/><rect x="2" y="0" width="1" height="1" fill="#2563eb"/><rect x="1" y="1" width="1" height="1" fill="#2563eb"/><rect x="3" y="1" width="1" height="1" fill="#2563eb"/><rect x="0" y="2" width="1" height="1" fill="#2563eb"/><rect x="2" y="2" width="1" height="1" fill="#2563eb"/><rect x="3" y="2" width="1" height="1" fill="#2563eb"/><rect x="1" y="3" width="1" height="1" fill="#2563eb"/><rect x="3" y="3" width="1" height="1" fill="#2563eb"/></pattern><pattern id="dt12a" width="4" height="4" patternUnits="userSpaceOnUse"><rect x="0" y="0" width="1" height="1" fill="#2563eb"/><rect x="1" y="0" width="1" height="1" fill="#2563eb"/><rect x="2" y="0" width="1" height="1" fill="#2563eb"/><rect x="3" y="0" width="1" height="1" fill="#2563eb"/><rect x="1" y="1" width="1" height="1" fill="#2563eb"/><rect x="3" y="1" width="1" height="1" fill="#2563eb"/><rect x="0" y="2" width="1" height="1" fill="#2563eb"/><rect x="1" y="2" width="1" height="1" fill="#2563eb"/><rect x="2" y="2" width="1" height="1" fill="#2563eb"/><rect x="3" y="2" width="1" height="1" fill="#2563eb"/><rect x="1" y="3" width="1" height="1" fill="#2563eb"/><rect x="3" y="3" width="1" height="1" fill="#2563eb"/></pattern><pattern id="dt14a" width="4" height="4" patternUnits="userSpaceOnUse"><rect x="0" y="0" width="1" height="1" fill="#2563eb"/><rect x="1" y="0" width="1" height="1" fill="#2563eb"/><rect x="2" y="0" width="1" height="1" fill="#2563eb"/><rect x="3" y="0" width="1" height="1" fill="#2563eb"/><rect x="0" y="1" width="1" height="1" fill="#2563eb"/><rect x="1" y="1" width="1" height="1" fill="#2563eb"/><rect x="3" y="1" width="1" height="1" fill="#2563eb"/><rect x="0" y="2" width="1" height="1" fill="#2563eb"/><rect x="1" y="2" width="1" height="1" fill="#2563eb"/><rect x="2" y="2" width="1" height="1" fill="#2563eb"/><rect x="3" y="2" width="1" height="1" fill="#2563eb"/><rect x="1" y="3" width="1" height="1" fill="#2563eb"/><rect x="2" y="3" width="1" height="1" fill="#2563eb"/><rect x="3" y="3" width="1" height="1" fill="#2563eb"/></pattern><pattern id="dt1g" width="4" height="4" patternUnits="userSpaceOnUse"><rect x="0" y="0" width="1" height="1" fill="#585858"/></pattern><pattern id="dt2g" width="4" height="4" patternUnits="userSpaceOnUse"><rect x="0" y="0" width="1" height="1" fill="#585858"/><rect x="2" y="2" width="1" height="1" fill="#585858"/></pattern><pattern id="dt3g" width="4" height="4" patternUnits="userSpaceOnUse"><rect x="0" y="0" width="1" height="1" fill="#585858"/><rect x="2" y="0" width="1" height="1" fill="#585858"/><rect x="2" y="2" width="1" height="1" fill="#585858"/></pattern><pattern id="dt4g" width="4" height="4" patternUnits="userSpaceOnUse"><rect x="0" y="0" width="1" height="1" fill="#585858"/><rect x="2" y="0" width="1" height="1" fill="#585858"/><rect x="0" y="2" width="1" height="1" fill="#585858"/><rect x="2" y="2" width="1" height="1" fill="#585858"/></pattern><pattern id="dt6g" width="4" height="4" patternUnits="userSpaceOnUse"><rect x="0" y="0" width="1" height="1" fill="#585858"/><rect x="2" y="0" width="1" height="1" fill="#585858"/><rect x="1" y="1" width="1" height="1" fill="#585858"/><rect x="0" y="2" width="1" height="1" fill="#585858"/><rect x="2" y="2" width="1" height="1" fill="#585858"/><rect x="3" y="3" width="1" height="1" fill="#585858"/></pattern><pattern id="dt8g" width="4" height="4" patternUnits="userSpaceOnUse"><rect x="0" y="0" width="1" height="1" fill="#585858"/><rect x="2" y="0" width="1" height="1" fill="#585858"/><rect x="1" y="1" width="1" height="1" fill="#585858"/><rect x="3" y="1" width="1" height="1" fill="#585858"/><rect x="0" y="2" width="1" height="1" fill="#585858"/><rect x="2" y="2" width="1" height="1" fill="#585858"/><rect x="1" y="3" width="1" height="1" fill="#585858"/><rect x="3" y="3" width="1" height="1" fill="#585858"/></pattern><pattern id="dt10g" width="4" height="4" patternUnits="userSpaceOnUse"><rect x="0" y="0" width="1" height="1" fill="#585858"/><rect x="1" y="0" width="1" height="1" fill="#585858"/><rect x="2" y="0" width="1" height="1" fill="#585858"/><rect x="1" y="1" width="1" height="1" fill="#585858"/><rect x="3" y="1" width="1" height="1" fill="#585858"/><rect x="0" y="2" width="1" height="1" fill="#585858"/><rect x="2" y="2" width="1" height="1" fill="#585858"/><rect x="3" y="2" width="1" height="1" fill="#585858"/><rect x="1" y="3" width="1" height="1" fill="#585858"/><rect x="3" y="3" width="1" height="1" fill="#585858"/></pattern><pattern id="dt12g" width="4" height="4" patternUnits="userSpaceOnUse"><rect x="0" y="0" width="1" height="1" fill="#585858"/><rect x="1" y="0" width="1" height="1" fill="#585858"/><rect x="2" y="0" width="1" height="1" fill="#585858"/><rect x="3" y="0" width="1" height="1" fill="#585858"/><rect x="1" y="1" width="1" height="1" fill="#585858"/><rect x="3" y="1" width="1" height="1" fill="#585858"/><rect x="0" y="2" width="1" height="1" fill="#585858"/><rect x="1" y="2" width="1" height="1" fill="#585858"/><rect x="2" y="2" width="1" height="1" fill="#585858"/><rect x="3" y="2" width="1" height="1" fill="#585858"/><rect x="1" y="3" width="1" height="1" fill="#585858"/><rect x="3" y="3" width="1" height="1" fill="#585858"/></pattern><pattern id="dt14g" width="4" height="4" patternUnits="userSpaceOnUse"><rect x="0" y="0" width="1" height="1" fill="#585858"/><rect x="1" y="0" width="1" height="1" fill="#585858"/><rect x="2" y="0" width="1" height="1" fill="#585858"/><rect x="3" y="0" width="1" height="1" fill="#585858"/><rect x="0" y="1" width="1" height="1" fill="#585858"/><rect x="1" y="1" width="1" height="1" fill="#585858"/><rect x="3" y="1" width="1" height="1" fill="#585858"/><rect x="0" y="2" width="1" height="1" fill="#585858"/><rect x="1" y="2" width="1" height="1" fill="#585858"/><rect x="2" y="2" width="1" height="1" fill="#585858"/><rect x="3" y="2" width="1" height="1" fill="#585858"/><rect x="1" y="3" width="1" height="1" fill="#585858"/><rect x="2" y="3" width="1" height="1" fill="#585858"/><rect x="3" y="3" width="1" height="1" fill="#585858"/></pattern><pattern id="dt1d" width="4" height="4" patternUnits="userSpaceOnUse"><rect x="0" y="0" width="1" height="1" fill="#333333"/></pattern><pattern id="dt2d" width="4" height="4" patternUnits="userSpaceOnUse"><rect x="0" y="0" width="1" height="1" fill="#333333"/><rect x="2" y="2" width="1" height="1" fill="#333333"/></pattern><pattern id="dt3d" width="4" height="4" patternUnits="userSpaceOnUse"><rect x="0" y="0" width="1" height="1" fill="#333333"/><rect x="2" y="0" width="1" height="1" fill="#333333"/><rect x="2" y="2" width="1" height="1" fill="#333333"/></pattern><pattern id="dt4d" width="4" height="4" patternUnits="userSpaceOnUse"><rect x="0" y="0" width="1" height="1" fill="#333333"/><rect x="2" y="0" width="1" height="1" fill="#333333"/><rect x="0" y="2" width="1" height="1" fill="#333333"/><rect x="2" y="2" width="1" height="1" fill="#333333"/></pattern><pattern id="dt6d" width="4" height="4" patternUnits="userSpaceOnUse"><rect x="0" y="0" width="1" height="1" fill="#333333"/><rect x="2" y="0" width="1" height="1" fill="#333333"/><rect x="1" y="1" width="1" height="1" fill="#333333"/><rect x="0" y="2" width="1" height="1" fill="#333333"/><rect x="2" y="2" width="1" height="1" fill="#333333"/><rect x="3" y="3" width="1" height="1" fill="#333333"/></pattern><pattern id="dt8d" width="4" height="4" patternUnits="userSpaceOnUse"><rect x="0" y="0" width="1" height="1" fill="#333333"/><rect x="2" y="0" width="1" height="1" fill="#333333"/><rect x="1" y="1" width="1" height="1" fill="#333333"/><rect x="3" y="1" width="1" height="1" fill="#333333"/><rect x="0" y="2" width="1" height="1" fill="#333333"/><rect x="2" y="2" width="1" height="1" fill="#333333"/><rect x="1" y="3" width="1" height="1" fill="#333333"/><rect x="3" y="3" width="1" height="1" fill="#333333"/></pattern><pattern id="dt10d" width="4" height="4" patternUnits="userSpaceOnUse"><rect x="0" y="0" width="1" height="1" fill="#333333"/><rect x="1" y="0" width="1" height="1" fill="#333333"/><rect x="2" y="0" width="1" height="1" fill="#333333"/><rect x="1" y="1" width="1" height="1" fill="#333333"/><rect x="3" y="1" width="1" height="1" fill="#333333"/><rect x="0" y="2" width="1" height="1" fill="#333333"/><rect x="2" y="2" width="1" height="1" fill="#333333"/><rect x="3" y="2" width="1" height="1" fill="#333333"/><rect x="1" y="3" width="1" height="1" fill="#333333"/><rect x="3" y="3" width="1" height="1" fill="#333333"/></pattern><pattern id="dt12d" width="4" height="4" patternUnits="userSpaceOnUse"><rect x="0" y="0" width="1" height="1" fill="#333333"/><rect x="1" y="0" width="1" height="1" fill="#333333"/><rect x="2" y="0" width="1" height="1" fill="#333333"/><rect x="3" y="0" width="1" height="1" fill="#333333"/><rect x="1" y="1" width="1" height="1" fill="#333333"/><rect x="3" y="1" width="1" height="1" fill="#333333"/><rect x="0" y="2" width="1" height="1" fill="#333333"/><rect x="1" y="2" width="1" height="1" fill="#333333"/><rect x="2" y="2" width="1" height="1" fill="#333333"/><rect x="3" y="2" width="1" height="1" fill="#333333"/><rect x="1" y="3" width="1" height="1" fill="#333333"/><rect x="3" y="3" width="1" height="1" fill="#333333"/></pattern><pattern id="dt14d" width="4" height="4" patternUnits="userSpaceOnUse"><rect x="0" y="0" width="1" height="1" fill="#333333"/><rect x="1" y="0" width="1" height="1" fill="#333333"/><rect x="2" y="0" width="1" height="1" fill="#333333"/><rect x="3" y="0" width="1" height="1" fill="#333333"/><rect x="0" y="1" width="1" height="1" fill="#333333"/><rect x="1" y="1" width="1" height="1" fill="#333333"/><rect x="3" y="1" width="1" height="1" fill="#333333"/><rect x="0" y="2" width="1" height="1" fill="#333333"/><rect x="1" y="2" width="1" height="1" fill="#333333"/><rect x="2" y="2" width="1" height="1" fill="#333333"/><rect x="3" y="2" width="1" height="1" fill="#333333"/><rect x="1" y="3" width="1" height="1" fill="#333333"/><rect x="2" y="3" width="1" height="1" fill="#333333"/><rect x="3" y="3" width="1" height="1" fill="#333333"/></pattern><pattern id="dt1m" width="4" height="4" patternUnits="userSpaceOnUse"><rect x="0" y="0" width="1" height="1" fill="#8b8b8b"/></pattern><pattern id="dt2m" width="4" height="4" patternUnits="userSpaceOnUse"><rect x="0" y="0" width="1" height="1" fill="#8b8b8b"/><rect x="2" y="2" width="1" height="1" fill="#8b8b8b"/></pattern><pattern id="dt3m" width="4" height="4" patternUnits="userSpaceOnUse"><rect x="0" y="0" width="1" height="1" fill="#8b8b8b"/><rect x="2" y="0" width="1" height="1" fill="#8b8b8b"/><rect x="2" y="2" width="1" height="1" fill="#8b8b8b"/></pattern><pattern id="dt4m" width="4" height="4" patternUnits="userSpaceOnUse"><rect x="0" y="0" width="1" height="1" fill="#8b8b8b"/><rect x="2" y="0" width="1" height="1" fill="#8b8b8b"/><rect x="0" y="2" width="1" height="1" fill="#8b8b8b"/><rect x="2" y="2" width="1" height="1" fill="#8b8b8b"/></pattern><pattern id="dt6m" width="4" height="4" patternUnits="userSpaceOnUse"><rect x="0" y="0" width="1" height="1" fill="#8b8b8b"/><rect x="2" y="0" width="1" height="1" fill="#8b8b8b"/><rect x="1" y="1" width="1" height="1" fill="#8b8b8b"/><rect x="0" y="2" width="1" height="1" fill="#8b8b8b"/><rect x="2" y="2" width="1" height="1" fill="#8b8b8b"/><rect x="3" y="3" width="1" height="1" fill="#8b8b8b"/></pattern><pattern id="dt8m" width="4" height="4" patternUnits="userSpaceOnUse"><rect x="0" y="0" width="1" height="1" fill="#8b8b8b"/><rect x="2" y="0" width="1" height="1" fill="#8b8b8b"/><rect x="1" y="1" width="1" height="1" fill="#8b8b8b"/><rect x="3" y="1" width="1" height="1" fill="#8b8b8b"/><rect x="0" y="2" width="1" height="1" fill="#8b8b8b"/><rect x="2" y="2" width="1" height="1" fill="#8b8b8b"/><rect x="1" y="3" width="1" height="1" fill="#8b8b8b"/><rect x="3" y="3" width="1" height="1" fill="#8b8b8b"/></pattern><pattern id="dt10m" width="4" height="4" patternUnits="userSpaceOnUse"><rect x="0" y="0" width="1" height="1" fill="#8b8b8b"/><rect x="1" y="0" width="1" height="1" fill="#8b8b8b"/><rect x="2" y="0" width="1" height="1" fill="#8b8b8b"/><rect x="1" y="1" width="1" height="1" fill="#8b8b8b"/><rect x="3" y="1" width="1" height="1" fill="#8b8b8b"/><rect x="0" y="2" width="1" height="1" fill="#8b8b8b"/><rect x="2" y="2" width="1" height="1" fill="#8b8b8b"/><rect x="3" y="2" width="1" height="1" fill="#8b8b8b"/><rect x="1" y="3" width="1" height="1" fill="#8b8b8b"/><rect x="3" y="3" width="1" height="1" fill="#8b8b8b"/></pattern><pattern id="dt12m" width="4" height="4" patternUnits="userSpaceOnUse"><rect x="0" y="0" width="1" height="1" fill="#8b8b8b"/><rect x="1" y="0" width="1" height="1" fill="#8b8b8b"/><rect x="2" y="0" width="1" height="1" fill="#8b8b8b"/><rect x="3" y="0" width="1" height="1" fill="#8b8b8b"/><rect x="1" y="1" width="1" height="1" fill="#8b8b8b"/><rect x="3" y="1" width="1" height="1" fill="#8b8b8b"/><rect x="0" y="2" width="1" height="1" fill="#8b8b8b"/><rect x="1" y="2" width="1" height="1" fill="#8b8b8b"/><rect x="2" y="2" width="1" height="1" fill="#8b8b8b"/><rect x="3" y="2" width="1" height="1" fill="#8b8b8b"/><rect x="1" y="3" width="1" height="1" fill="#8b8b8b"/><rect x="3" y="3" width="1" height="1" fill="#8b8b8b"/></pattern><pattern id="dt14m" width="4" height="4" patternUnits="userSpaceOnUse"><rect x="0" y="0" width="1" height="1" fill="#8b8b8b"/><rect x="1" y="0" width="1" height="1" fill="#8b8b8b"/><rect x="2" y="0" width="1" height="1" fill="#8b8b8b"/><rect x="3" y="0" width="1" height="1" fill="#8b8b8b"/><rect x="0" y="1" width="1" height="1" fill="#8b8b8b"/><rect x="1" y="1" width="1" height="1" fill="#8b8b8b"/><rect x="3" y="1" width="1" height="1" fill="#8b8b8b"/><rect x="0" y="2" width="1" height="1" fill="#8b8b8b"/><rect x="1" y="2" width="1" height="1" fill="#8b8b8b"/><rect x="2" y="2" width="1" height="1" fill="#8b8b8b"/><rect x="3" y="2" width="1" height="1" fill="#8b8b8b"/><rect x="1" y="3" width="1" height="1" fill="#8b8b8b"/><rect x="2" y="3" width="1" height="1" fill="#8b8b8b"/><rect x="3" y="3" width="1" height="1" fill="#8b8b8b"/></pattern><clipPath id="card"><rect x="0" y="0" width="880" height="422" rx="3"/></clipPath><pattern id="scan" width="1" height="3" patternUnits="userSpaceOnUse"><rect width="1" height="1" fill="#000000" opacity="0.5"/></pattern><filter id="grain" x="0" y="0" width="100%" height="100%"><feTurbulence type="fractalNoise" baseFrequency="0.9" numOctaves="2" stitchTiles="stitch"/><feColorMatrix type="saturate" values="0"/></filter><linearGradient id="rainfade" x1="0" y1="0" x2="1" y2="0"><stop offset="0" stop-color="#fff" stop-opacity="0.85"/><stop offset="0.38" stop-color="#fff" stop-opacity="0"/><stop offset="0.62" stop-color="#fff" stop-opacity="0"/><stop offset="1" stop-color="#fff" stop-opacity="0.85"/></linearGradient><mask id="rainmask"><rect width="880" height="422" fill="url(#rainfade)"/></mask></defs>
<rect x="0.0" y="0.0" width="880.0" height="422.0" rx="3" fill="#121212"/>
<rect x="0.5" y="0.5" width="879.0" height="421.0" rx="3" fill="none" stroke="#333333" stroke-width="1"/>
<path d="M7 16 V7 H16" stroke="#585858" stroke-width="1" fill="none"/><path d="M873 16 V7 H864" stroke="#585858" stroke-width="1" fill="none"/><path d="M7 406 V415 H16" stroke="#585858" stroke-width="1" fill="none"/><path d="M873 406 V415 H864" stroke="#585858" stroke-width="1" fill="none"/>
<g clip-path="url(#card)"><rect x="0.0" y="0.0" width="4.0" height="120.0" rx="0" fill="#2563eb"/><rect x="0.0" y="120.0" width="4.0" height="60.4" rx="0" fill="url(#dt12a)"/><rect x="0.0" y="180.4" width="4.0" height="60.4" rx="0" fill="url(#dt8a)"/><rect x="0.0" y="240.8" width="4.0" height="60.4" rx="0" fill="url(#dt5a)"/><rect x="0.0" y="301.2" width="4.0" height="60.4" rx="0" fill="url(#dt3a)"/><rect x="0.0" y="361.6" width="4.0" height="60.4" rx="0" fill="url(#dt2a)"/></g>
<text x="32.0" y="40.0" font-family="ui-monospace,SFMono-Regular,'SF Mono',Menlo,Consolas,'Liberation Mono',monospace" font-size="10" font-weight="600" fill="#585858" text-anchor="start" letter-spacing="1.2">[ BEFORE / AFTER ]</text>
<text x="32.0" y="62.0" font-family="ui-sans-serif,-apple-system,BlinkMacSystemFont,'Segoe UI',Roboto,'Helvetica Neue',Arial,sans-serif" font-size="12.5" fill="#8b8b8b" text-anchor="start">The same workload before and after my change. Farther right is a bigger win.</text>
<text x="32.0" y="80.0" font-family="ui-monospace,SFMono-Regular,'SF Mono',Menlo,Consolas,'Liberation Mono',monospace" font-size="10.5" fill="#585858" text-anchor="start">Log scale — each gridline is 10× the one before it.</text>
<rect x="262.0" y="100.0" width="1.0" height="298.0" rx="0" fill="#585858"/>
<text x="262.0" y="94.0" font-family="ui-monospace,SFMono-Regular,'SF Mono',Menlo,Consolas,'Liberation Mono',monospace" font-size="9.5" font-weight="600" fill="#585858" text-anchor="middle">1×</text>
<rect x="392.4" y="100.0" width="1.0" height="298.0" rx="0" fill="url(#dt6d)"/>
<text x="392.4" y="94.0" font-family="ui-monospace,SFMono-Regular,'SF Mono',Menlo,Consolas,'Liberation Mono',monospace" font-size="9.5" fill="#585858" text-anchor="middle">10×</text>
<rect x="522.8" y="100.0" width="1.0" height="298.0" rx="0" fill="url(#dt6d)"/>
<text x="522.8" y="94.0" font-family="ui-monospace,SFMono-Regular,'SF Mono',Menlo,Consolas,'Liberation Mono',monospace" font-size="9.5" fill="#585858" text-anchor="middle">100×</text>
<text x="32.0" y="113.0" font-family="ui-sans-serif,-apple-system,BlinkMacSystemFont,'Segoe UI',Roboto,'Helvetica Neue',Arial,sans-serif" font-size="12.5" font-weight="600" fill="#e8e8e8" text-anchor="start">City-scale simulation run</text>
<text x="32.0" y="129.0" font-family="ui-monospace,SFMono-Regular,'SF Mono',Menlo,Consolas,'Liberation Mono',monospace" font-size="10" fill="#585858" text-anchor="start">Unity raycasting, Manhattan</text>
<rect x="262.0" y="116.0" width="287.9" height="4.0" rx="0" fill="url(#dt10a)"/>
<rect x="260.0" y="114.0" width="4.0" height="8.0" rx="0" fill="#333333"/>
<rect x="544.9" y="111.0" width="10.0" height="14.0" rx="0" fill="#2563eb"/>
<rect x="544.9" y="111.0" width="10.0" height="14.0" rx="0" fill="none" stroke="#121212" stroke-width="2"/>
<text x="563.9" y="123.0" font-family="ui-monospace,SFMono-Regular,'SF Mono',Menlo,Consolas,'Liberation Mono',monospace" font-size="15" font-weight="600" fill="#3b82f6" text-anchor="start">161×</text>
<text x="603.9" y="123.0" font-family="ui-monospace,SFMono-Regular,'SF Mono',Menlo,Consolas,'Liberation Mono',monospace" font-size="10" fill="#585858" text-anchor="start">faster</text>
<text x="848.0" y="122.0" font-family="ui-monospace,SFMono-Regular,'SF Mono',Menlo,Consolas,'Liberation Mono',monospace" font-size="11" fill="#8b8b8b" text-anchor="end">30 h → 11 min</text>
<rect x="32.0" y="142.0" width="816.0" height="2.0" rx="0" fill="url(#dt4d)"/>
<text x="32.0" y="165.0" font-family="ui-sans-serif,-apple-system,BlinkMacSystemFont,'Segoe UI',Roboto,'Helvetica Neue',Arial,sans-serif" font-size="12.5" font-weight="600" fill="#e8e8e8" text-anchor="start">PostGIS spatial query</text>
<text x="32.0" y="181.0" font-family="ui-monospace,SFMono-Regular,'SF Mono',Menlo,Consolas,'Liberation Mono',monospace" font-size="10" fill="#585858" text-anchor="start">after index + memory retune</text>
<rect x="262.0" y="168.0" width="248.1" height="4.0" rx="0" fill="url(#dt10a)"/>
<rect x="260.0" y="166.0" width="4.0" height="8.0" rx="0" fill="#333333"/>
<rect x="505.1" y="163.0" width="10.0" height="14.0" rx="0" fill="#2563eb"/>
<rect x="505.1" y="163.0" width="10.0" height="14.0" rx="0" fill="none" stroke="#121212" stroke-width="2"/>
<text x="524.1" y="175.0" font-family="ui-monospace,SFMono-Regular,'SF Mono',Menlo,Consolas,'Liberation Mono',monospace" font-size="15" font-weight="600" fill="#3b82f6" text-anchor="start">80×</text>
<text x="555.1" y="175.0" font-family="ui-monospace,SFMono-Regular,'SF Mono',Menlo,Consolas,'Liberation Mono',monospace" font-size="10" fill="#585858" text-anchor="start">faster</text>
<text x="848.0" y="174.0" font-family="ui-monospace,SFMono-Regular,'SF Mono',Menlo,Consolas,'Liberation Mono',monospace" font-size="11" fill="#8b8b8b" text-anchor="end">2,000 ms → 25 ms</text>
<rect x="32.0" y="194.0" width="816.0" height="2.0" rx="0" fill="url(#dt4d)"/>
<text x="32.0" y="217.0" font-family="ui-sans-serif,-apple-system,BlinkMacSystemFont,'Segoe UI',Roboto,'Helvetica Neue',Arial,sans-serif" font-size="12.5" font-weight="600" fill="#e8e8e8" text-anchor="start">Agent context overhead</text>
<text x="32.0" y="233.0" font-family="ui-monospace,SFMono-Regular,'SF Mono',Menlo,Consolas,'Liberation Mono',monospace" font-size="10" fill="#585858" text-anchor="start">per LLM call, tool schemas</text>
<rect x="262.0" y="220.0" width="198.5" height="4.0" rx="0" fill="url(#dt10a)"/>
<rect x="260.0" y="218.0" width="4.0" height="8.0" rx="0" fill="#333333"/>
<rect x="455.5" y="215.0" width="10.0" height="14.0" rx="0" fill="#2563eb"/>
<rect x="455.5" y="215.0" width="10.0" height="14.0" rx="0" fill="none" stroke="#121212" stroke-width="2"/>
<text x="474.5" y="227.0" font-family="ui-monospace,SFMono-Regular,'SF Mono',Menlo,Consolas,'Liberation Mono',monospace" font-size="15" font-weight="600" fill="#3b82f6" text-anchor="start">33×</text>
<text x="505.5" y="227.0" font-family="ui-monospace,SFMono-Regular,'SF Mono',Menlo,Consolas,'Liberation Mono',monospace" font-size="10" fill="#585858" text-anchor="start">less</text>
<text x="848.0" y="226.0" font-family="ui-monospace,SFMono-Regular,'SF Mono',Menlo,Consolas,'Liberation Mono',monospace" font-size="11" fill="#8b8b8b" text-anchor="end">10k tok → ~300 tok</text>
<rect x="32.0" y="246.0" width="816.0" height="2.0" rx="0" fill="url(#dt4d)"/>
<text x="32.0" y="269.0" font-family="ui-sans-serif,-apple-system,BlinkMacSystemFont,'Segoe UI',Roboto,'Helvetica Neue',Arial,sans-serif" font-size="12.5" font-weight="600" fill="#e8e8e8" text-anchor="start">AUV steady-state error</text>
<text x="32.0" y="285.0" font-family="ui-monospace,SFMono-Regular,'SF Mono',Menlo,Consolas,'Liberation Mono',monospace" font-size="10" fill="#585858" text-anchor="start">6-DoF controller, pool tests</text>
<rect x="262.0" y="272.0" width="91.1" height="4.0" rx="0" fill="url(#dt10a)"/>
<rect x="260.0" y="270.0" width="4.0" height="8.0" rx="0" fill="#333333"/>
<rect x="348.1" y="267.0" width="10.0" height="14.0" rx="0" fill="#2563eb"/>
<rect x="348.1" y="267.0" width="10.0" height="14.0" rx="0" fill="none" stroke="#121212" stroke-width="2"/>
<text x="367.1" y="279.0" font-family="ui-monospace,SFMono-Regular,'SF Mono',Menlo,Consolas,'Liberation Mono',monospace" font-size="15" font-weight="600" fill="#3b82f6" text-anchor="start">5.0×</text>
<text x="407.1" y="279.0" font-family="ui-monospace,SFMono-Regular,'SF Mono',Menlo,Consolas,'Liberation Mono',monospace" font-size="10" fill="#585858" text-anchor="start">less</text>
<text x="848.0" y="278.0" font-family="ui-monospace,SFMono-Regular,'SF Mono',Menlo,Consolas,'Liberation Mono',monospace" font-size="11" fill="#8b8b8b" text-anchor="end">baseline → 20%</text>
<rect x="32.0" y="298.0" width="816.0" height="2.0" rx="0" fill="url(#dt4d)"/>
<text x="32.0" y="321.0" font-family="ui-sans-serif,-apple-system,BlinkMacSystemFont,'Segoe UI',Roboto,'Helvetica Neue',Arial,sans-serif" font-size="12.5" font-weight="600" fill="#e8e8e8" text-anchor="start">Web interaction latency</text>
<text x="32.0" y="337.0" font-family="ui-monospace,SFMono-Regular,'SF Mono',Menlo,Consolas,'Liberation Mono',monospace" font-size="10" fill="#585858" text-anchor="start">INP, chat workspace</text>
<rect x="262.0" y="324.0" width="70.9" height="4.0" rx="0" fill="url(#dt10a)"/>
<rect x="260.0" y="322.0" width="4.0" height="8.0" rx="0" fill="#333333"/>
<rect x="327.9" y="319.0" width="10.0" height="14.0" rx="0" fill="#2563eb"/>
<rect x="327.9" y="319.0" width="10.0" height="14.0" rx="0" fill="none" stroke="#121212" stroke-width="2"/>
<text x="346.9" y="331.0" font-family="ui-monospace,SFMono-Regular,'SF Mono',Menlo,Consolas,'Liberation Mono',monospace" font-size="15" font-weight="600" fill="#3b82f6" text-anchor="start">3.5×</text>
<text x="386.9" y="331.0" font-family="ui-monospace,SFMono-Regular,'SF Mono',Menlo,Consolas,'Liberation Mono',monospace" font-size="10" fill="#585858" text-anchor="start">faster</text>
<text x="848.0" y="330.0" font-family="ui-monospace,SFMono-Regular,'SF Mono',Menlo,Consolas,'Liberation Mono',monospace" font-size="11" fill="#8b8b8b" text-anchor="end">140 ms → 40 ms</text>
<rect x="32.0" y="350.0" width="816.0" height="2.0" rx="0" fill="url(#dt4d)"/>
<text x="32.0" y="373.0" font-family="ui-sans-serif,-apple-system,BlinkMacSystemFont,'Segoe UI',Roboto,'Helvetica Neue',Arial,sans-serif" font-size="12.5" font-weight="600" fill="#e8e8e8" text-anchor="start">Fleet data uploaded</text>
<text x="32.0" y="389.0" font-family="ui-monospace,SFMono-Regular,'SF Mono',Menlo,Consolas,'Liberation Mono',monospace" font-size="10" fill="#585858" text-anchor="start">per vehicle, per day</text>
<rect x="262.0" y="376.0" width="68.2" height="4.0" rx="0" fill="url(#dt10a)"/>
<rect x="260.0" y="374.0" width="4.0" height="8.0" rx="0" fill="#333333"/>
<rect x="325.2" y="371.0" width="10.0" height="14.0" rx="0" fill="#2563eb"/>
<rect x="325.2" y="371.0" width="10.0" height="14.0" rx="0" fill="none" stroke="#121212" stroke-width="2"/>
<text x="344.2" y="383.0" font-family="ui-monospace,SFMono-Regular,'SF Mono',Menlo,Consolas,'Liberation Mono',monospace" font-size="15" font-weight="600" fill="#3b82f6" text-anchor="start">3.3×</text>
<text x="384.2" y="383.0" font-family="ui-monospace,SFMono-Regular,'SF Mono',Menlo,Consolas,'Liberation Mono',monospace" font-size="10" fill="#585858" text-anchor="start">less</text>
<text x="848.0" y="382.0" font-family="ui-monospace,SFMono-Regular,'SF Mono',Menlo,Consolas,'Liberation Mono',monospace" font-size="11" fill="#8b8b8b" text-anchor="end">100% → 30%</text>

</svg>
